<svg width="36" height="36" viewBox="0 0 36 36" fill="none" xmlns="http://www.w3.org/2000/svg">
<g clip-path="url(#clip0_27_323)">
<path fill-rule="evenodd" clip-rule="evenodd" d="M17.9989 0.375C8.05948 0.375 0 8.4653 0 18.4475C0 26.4305 5.15699 33.2039 12.3109 35.5938C13.2109 35.7599 13.5394 35.2019 13.5394 34.723C13.5394 34.2938 13.5236 33.1576 13.5146 31.6497C8.50723 32.7419 7.45088 29.2271 7.45088 29.2271C6.63301 27.1398 5.45288 26.5841 5.45288 26.5841C3.81826 25.4626 5.57661 25.4851 5.57661 25.4851C7.38224 25.6128 8.33286 27.3476 8.33286 27.3476C9.93936 30.1092 12.546 29.3118 13.572 28.8487C13.7351 27.6808 14.2009 26.8846 14.715 26.4328C10.7179 25.9765 6.51599 24.4269 6.51599 17.5021C6.51599 15.529 7.21688 13.9161 8.36888 12.6522C8.18326 12.1948 7.56564 10.3583 8.54439 7.8701C8.54439 7.8701 10.0564 7.38442 13.4944 9.7224C14.931 9.32144 16.47 9.12152 18.0011 9.11362C19.53 9.12152 21.0701 9.32144 22.5079 9.7224C25.9436 7.38442 27.4523 7.8701 27.4523 7.8701C28.4344 10.3583 27.8167 12.1948 27.6311 12.6522C28.7854 13.9161 29.4818 15.529 29.4818 17.5021C29.4818 24.4438 25.2731 25.9719 21.2636 26.4192C21.9094 26.9771 22.4854 28.0795 22.4854 29.7658C22.4854 32.1817 22.4629 34.13 22.4629 34.723C22.4629 35.2064 22.7869 35.7689 23.7004 35.5915C30.8475 33.1971 36 26.4282 36 18.4475C36 8.4653 27.9405 0.375 17.9989 0.375Z" fill="#4A3F35"/>
</g>
<defs>
<clipPath id="clip0_27_323">
<rect width="36" height="36" fill="white"/>
</clipPath>
</defs>
</svg>
