<svg width="36" height="36" viewBox="0 0 36 36" fill="none" xmlns="http://www.w3.org/2000/svg">
<g clip-path="url(#clip0_27_312)">
<path d="M7.96082 12.5815V34.9604H1.57214V12.5815H7.96082Z" stroke="#4A3F35" stroke-width="2"/>
<path d="M4.76855 1.03961C6.84411 1.03961 8.53426 2.7292 8.53418 4.80328C8.53418 6.87889 6.84368 8.56891 4.76855 8.56891C2.69075 8.56869 1 6.8781 1 4.80328C1.00003 2.73004 2.69039 1.03983 4.76855 1.03961Z" stroke="#4A3F35" stroke-width="2"/>
<path d="M26.7628 12.0045C30.5487 12.0046 32.4933 13.3448 33.5723 15.1744C34.7165 17.1147 35 19.7838 35.0001 22.6442V34.9606H28.6251V24.0914C28.6251 22.547 28.5795 20.9433 28.0606 19.7252C27.7863 19.0814 27.3646 18.5029 26.7237 18.0963C26.0883 17.6933 25.3228 17.5133 24.4522 17.5133C22.908 17.5134 21.5968 17.9578 20.7452 19.1793C19.9599 20.3057 19.7022 21.9177 19.7022 23.8922V34.9606H13.3301V12.5817H19.4122V16.2379L21.1495 14.3463C22.2792 13.1156 24.1654 12.0045 26.7628 12.0045Z" stroke="#4A3F35" stroke-width="2"/>
</g>
<defs>
<clipPath id="clip0_27_312">
<rect width="36" height="36" fill="white"/>
</clipPath>
</defs>
</svg>
